<svg width="32" height="33" viewBox="0 0 32 33" fill="none" xmlns="http://www.w3.org/2000/svg">
<path d="M7.5 4.23242H24.5C26.4333 4.23242 28 5.79909 28 7.73242V15.3438C27.5256 14.903 26.9549 14.5791 26.3333 14.3978V7.73242C26.3333 7.24619 26.1402 6.77988 25.7964 6.43606C25.4525 6.09224 24.9862 5.89909 24.5 5.89909H17V14.3978C16.3783 14.5793 15.8076 14.9034 15.3333 15.3444V5.89909H7.5C7.01377 5.89909 6.54745 6.09224 6.20364 6.43606C5.85982 6.77988 5.66667 7.24619 5.66667 7.73242V15.3991H15.2753C14.7945 15.8619 14.4319 16.4335 14.218 17.0658H5.66667V24.7324C5.66667 25.2187 5.85982 25.685 6.20364 26.0288C6.54745 26.3726 7.01377 26.5658 7.5 26.5658H14.1653C14.3469 27.1874 14.671 27.7581 15.112 28.2324H7.5C6.57174 28.2324 5.6815 27.8637 5.02513 27.2073C4.36875 26.5509 4 25.6607 4 24.7324V7.73242C4 5.79909 5.56667 4.23242 7.5 4.23242ZM15.3333 18.3991C15.3333 17.6476 15.6318 16.927 16.1632 16.3956C16.6946 15.8643 17.4152 15.5658 18.1667 15.5658H25.1667C25.9181 15.5658 26.6388 15.8643 27.1701 16.3956C27.7015 16.927 28 17.6476 28 18.3991V25.3991C28 26.1505 27.7015 26.8712 27.1701 27.4026C26.6388 27.9339 25.9181 28.2324 25.1667 28.2324H18.1667C17.4152 28.2324 16.6946 27.9339 16.1632 27.4026C15.6318 26.8712 15.3333 26.1505 15.3333 25.3991V18.3991Z" fill="#05C6F4"/>
</svg>
