<svg width="32" height="33" viewBox="0 0 32 33" fill="none" xmlns="http://www.w3.org/2000/svg">
<path d="M16 18.0312V3.3645L26.6667 8.69784L16 14.0312" stroke="#F1004F" stroke-width="2" stroke-linecap="round" stroke-linejoin="round"/>
<path d="M27.4147 14.3273C28.1243 16.5141 28.1906 18.8588 27.606 21.0823C27.0213 23.3058 25.8102 25.3145 24.1168 26.8695C22.4234 28.4245 20.3189 29.4603 18.0537 29.8537C15.7885 30.2471 13.458 29.9815 11.3395 29.0885C9.22091 28.1955 7.40347 26.7127 6.10338 24.8165C4.80329 22.9203 4.07527 20.6905 4.00595 18.3925C3.93662 16.0945 4.52891 13.8249 5.71233 11.8538C6.89576 9.88267 8.62051 8.29301 10.6814 7.27393" stroke="#F1004F" stroke-width="2" stroke-linecap="round" stroke-linejoin="round"/>
<path d="M10.6695 14.0271C10.0014 14.9165 9.56643 15.9589 9.40425 17.0594C9.24207 18.1598 9.35783 19.2834 9.74099 20.3277C10.1241 21.372 10.7625 22.3038 11.598 23.0383C12.4334 23.7727 13.4393 24.2864 14.5241 24.5327C15.6089 24.7789 16.738 24.7497 17.8087 24.4479C18.8793 24.146 19.8574 23.5811 20.6538 22.8045C21.4502 22.028 22.0397 21.0645 22.3685 20.0018C22.6973 18.9391 22.7549 17.8111 22.5362 16.7204" stroke="#F1004F" stroke-width="2" stroke-linecap="round" stroke-linejoin="round"/>
</svg>
