<svg width="40" height="41" viewBox="0 0 40 41" fill="none" xmlns="http://www.w3.org/2000/svg">
<rect y="0.732422" width="40" height="40" rx="20" fill="#4C2F92"/>
<path d="M14.1238 26.582V17.6278H16.6072V26.582H14.1238ZM15.3714 16.4736C15.0022 16.4736 14.6854 16.3511 14.4211 16.1063C14.1608 15.8576 14.0306 15.5603 14.0306 15.2144C14.0306 14.8724 14.1608 14.579 14.4211 14.3341C14.6854 14.0854 15.0022 13.961 15.3714 13.961C15.7406 13.961 16.0554 14.0854 16.3158 14.3341C16.58 14.579 16.7122 14.8724 16.7122 15.2144C16.7122 15.5603 16.58 15.8576 16.3158 16.1063C16.0554 16.3511 15.7406 16.4736 15.3714 16.4736ZM23.7674 14.6431V26.582H21.2432V17.039H21.1732L18.4392 18.7529V16.5144L21.3948 14.6431H23.7674Z" fill="white"/>
</svg>
