<svg width="40" height="41" viewBox="0 0 40 41" fill="none" xmlns="http://www.w3.org/2000/svg">
<rect y="0.732422" width="40" height="40" rx="20" fill="#E3000B"/>
<path d="M13.991 26.7324V17.7782H16.4744V26.7324H13.991ZM15.2386 16.624C14.8693 16.624 14.5526 16.5015 14.2883 16.2567C14.0279 16.008 13.8978 15.7107 13.8978 15.3648C13.8978 15.0228 14.0279 14.7293 14.2883 14.4845C14.5526 14.2358 14.8693 14.1114 15.2386 14.1114C15.6078 14.1114 15.9226 14.2358 16.1829 14.4845C16.4472 14.7293 16.5794 15.0228 16.5794 15.3648C16.5794 15.7107 16.4472 16.008 16.1829 16.2567C15.9226 16.5015 15.6078 16.624 15.2386 16.624ZM18.4404 26.7324V24.9136L22.6902 20.9786C23.0516 20.6289 23.3548 20.3141 23.5996 20.0343C23.8483 19.7544 24.0368 19.4804 24.1651 19.2123C24.2933 18.9402 24.3575 18.6468 24.3575 18.332C24.3575 17.9822 24.2778 17.681 24.1184 17.4284C23.9591 17.1719 23.7415 16.9757 23.4655 16.8396C23.1896 16.6997 22.8767 16.6298 22.527 16.6298C22.1616 16.6298 21.843 16.7036 21.5709 16.8513C21.2989 16.999 21.089 17.2108 20.9413 17.4867C20.7936 17.7627 20.7198 18.0911 20.7198 18.4719H18.3239C18.3239 17.6908 18.5007 17.0126 18.8543 16.4374C19.208 15.8622 19.7035 15.4172 20.3409 15.1024C20.9782 14.7876 21.7128 14.6302 22.5445 14.6302C23.3995 14.6302 24.1437 14.7818 24.7772 15.0849C25.4145 15.3842 25.9101 15.8 26.2637 16.3325C26.6174 16.8649 26.7942 17.4751 26.7942 18.163C26.7942 18.6138 26.7048 19.0588 26.5261 19.4979C26.3512 19.9371 26.0383 20.4248 25.5875 20.9612C25.1367 21.4936 24.5012 22.1329 23.6812 22.8791L21.9382 24.5871V24.6688H26.9516V26.7324H18.4404Z" fill="white"/>
</svg>
