<svg width="40" height="41" viewBox="0 0 40 41" fill="none" xmlns="http://www.w3.org/2000/svg">
<rect y="0.732422" width="40" height="40" rx="20" fill="#FFCF00"/>
<path d="M12.991 26.7324V17.7782H15.4744V26.7324H12.991ZM14.2386 16.624C13.8693 16.624 13.5526 16.5015 13.2883 16.2567C13.0279 16.008 12.8978 15.7107 12.8978 15.3648C12.8978 15.0228 13.0279 14.7293 13.2883 14.4845C13.5526 14.2358 13.8693 14.1114 14.2386 14.1114C14.6078 14.1114 14.9226 14.2358 15.1829 14.4845C15.4472 14.7293 15.5794 15.0228 15.5794 15.3648C15.5794 15.7107 15.4472 16.008 15.1829 16.2567C14.9226 16.5015 14.6078 16.624 14.2386 16.624ZM21.8534 26.8956C20.9829 26.8956 20.2075 26.746 19.5274 26.4468C18.8512 26.1436 18.3168 25.7278 17.9243 25.1992C17.5357 24.6668 17.3355 24.0528 17.3239 23.3571H19.8655C19.8811 23.6486 19.9763 23.9051 20.1512 24.1266C20.33 24.3442 20.567 24.5133 20.8624 24.6338C21.1578 24.7543 21.49 24.8145 21.8593 24.8145C22.244 24.8145 22.5841 24.7465 22.8794 24.6105C23.1748 24.4744 23.406 24.2859 23.5731 24.045C23.7403 23.804 23.8238 23.5262 23.8238 23.2114C23.8238 22.8927 23.7344 22.6109 23.5557 22.3661C23.3808 22.1173 23.1282 21.923 22.7978 21.7831C22.4714 21.6432 22.0827 21.5733 21.6319 21.5733H20.5185V19.7195H21.6319C22.0128 19.7195 22.3489 19.6534 22.6404 19.5212C22.9358 19.3891 23.1651 19.2065 23.3283 18.9733C23.4915 18.7362 23.5731 18.4603 23.5731 18.1455C23.5731 17.8462 23.5012 17.5839 23.3575 17.3585C23.2175 17.1292 23.0193 16.9504 22.7628 16.8222C22.5102 16.6939 22.2149 16.6298 21.8767 16.6298C21.5347 16.6298 21.2219 16.692 20.9382 16.8163C20.6545 16.9368 20.4271 17.1098 20.2561 17.3352C20.0851 17.5606 19.9938 17.8248 19.9821 18.128H17.5629C17.5745 17.4401 17.7708 16.8338 18.1516 16.3092C18.5325 15.7845 19.0455 15.3745 19.6907 15.0791C20.3397 14.7799 21.0723 14.6302 21.8884 14.6302C22.7123 14.6302 23.4332 14.7799 24.0512 15.0791C24.6691 15.3784 25.1491 15.7826 25.4911 16.2917C25.837 16.7969 26.008 17.3643 26.0041 17.9939C26.008 18.6624 25.8 19.2201 25.3803 19.667C24.9645 20.1139 24.4223 20.3976 23.7539 20.5181V20.6114C24.6322 20.7241 25.3006 21.0292 25.7592 21.5266C26.2217 22.0202 26.451 22.6381 26.4471 23.3804C26.451 24.0605 26.2547 24.6649 25.8583 25.1934C25.4658 25.722 24.9237 26.1378 24.2319 26.4409C23.5401 26.7441 22.7473 26.8956 21.8534 26.8956Z" fill="white"/>
</svg>
