<svg width="40" height="41" viewBox="0 0 40 41" fill="none" xmlns="http://www.w3.org/2000/svg">
<rect y="0.732422" width="40" height="40" rx="20" fill="#F57D20"/>
<path d="M12.991 26.7324V17.7782H15.4744V26.7324H12.991ZM14.2386 16.624C13.8693 16.624 13.5526 16.5015 13.2883 16.2567C13.0279 16.008 12.8978 15.7107 12.8978 15.3648C12.8978 15.0228 13.0279 14.7293 13.2883 14.4845C13.5526 14.2358 13.8693 14.1114 14.2386 14.1114C14.6078 14.1114 14.9226 14.2358 15.1829 14.4845C15.4472 14.7293 15.5794 15.0228 15.5794 15.3648C15.5794 15.7107 15.4472 16.008 15.1829 16.2567C14.9226 16.5015 14.6078 16.624 14.2386 16.624ZM17.2597 24.6338V22.6459L22.244 14.7935H23.9579V17.545H22.9436L19.8014 22.5176V22.6109H26.8843V24.6338H17.2597ZM22.9902 26.7324V24.0275L23.0368 23.1472V14.7935H25.4036V26.7324H22.9902Z" fill="white"/>
</svg>
