<svg width="40" height="41" viewBox="0 0 40 41" fill="none" xmlns="http://www.w3.org/2000/svg">
<rect y="0.732422" width="40" height="40" rx="20" fill="#00AF4D"/>
<path d="M14.1238 26.582V17.6278H16.6072V26.582H14.1238ZM15.3714 16.4736C15.0022 16.4736 14.6854 16.3511 14.4211 16.1063C14.1608 15.8576 14.0306 15.5603 14.0306 15.2144C14.0306 14.8724 14.1608 14.579 14.4211 14.3341C14.6854 14.0854 15.0022 13.961 15.3714 13.961C15.7406 13.961 16.0554 14.0854 16.3158 14.3341C16.58 14.579 16.7122 14.8724 16.7122 15.2144C16.7122 15.5603 16.58 15.8576 16.3158 16.1063C16.0554 16.3511 15.7406 16.4736 15.3714 16.4736ZM22.9338 26.7453C22.1099 26.7453 21.3753 26.5937 20.7302 26.2906C20.0889 25.9874 19.5798 25.5696 19.2028 25.0372C18.8259 24.5048 18.6296 23.8946 18.6141 23.2067H21.0625C21.0897 23.6692 21.284 24.0442 21.6454 24.3318C22.0069 24.6194 22.4363 24.7632 22.9338 24.7632C23.3302 24.7632 23.68 24.6758 23.9831 24.5009C24.2901 24.3221 24.5291 24.0753 24.7001 23.7605C24.875 23.4418 24.9625 23.0765 24.9625 22.6646C24.9625 22.2448 24.8731 21.8756 24.6943 21.5569C24.5194 21.2383 24.2765 20.9895 23.9656 20.8108C23.6547 20.632 23.2991 20.5407 22.8988 20.5368C22.549 20.5368 22.209 20.6087 21.8786 20.7525C21.5522 20.8963 21.2976 21.0925 21.1149 21.3413L18.8706 20.939L19.436 14.6431H26.7346V16.7067H21.5172L21.2082 19.6973H21.2782C21.488 19.4019 21.8048 19.1571 22.2284 18.9628C22.652 18.7685 23.1261 18.6713 23.6508 18.6713C24.3698 18.6713 25.011 18.8404 25.5746 19.1785C26.1381 19.5166 26.5831 19.981 26.9095 20.5717C27.236 21.1586 27.3973 21.8348 27.3934 22.6004C27.3973 23.4049 27.2107 24.12 26.8337 24.7457C26.4607 25.3675 25.9379 25.8572 25.2656 26.2148C24.5971 26.5684 23.8199 26.7453 22.9338 26.7453Z" fill="white"/>
</svg>
