<svg width="24" height="25" viewBox="0 0 24 25" fill="none" xmlns="http://www.w3.org/2000/svg">
<path d="M6 7.78711H11C11.2652 7.78711 11.5196 7.89247 11.7071 8.08C11.8946 8.26754 12 8.52189 12 8.78711C12 9.05233 11.8946 9.30668 11.7071 9.49422C11.5196 9.68175 11.2652 9.78711 11 9.78711H6C5.73478 9.78711 5.48043 9.68175 5.29289 9.49422C5.10536 9.30668 5 9.05233 5 8.78711C5 8.52189 5.10536 8.26754 5.29289 8.08C5.48043 7.89247 5.73478 7.78711 6 7.78711ZM13 15.7871H18C18.2652 15.7871 18.5196 15.8925 18.7071 16.08C18.8946 16.2675 19 16.5219 19 16.7871C19 17.0523 18.8946 17.3067 18.7071 17.4942C18.5196 17.6818 18.2652 17.7871 18 17.7871H13C12.7348 17.7871 12.4804 17.6818 12.2929 17.4942C12.1054 17.3067 12 17.0523 12 16.7871C12 16.5219 12.1054 16.2675 12.2929 16.08C12.4804 15.8925 12.7348 15.7871 13 15.7871ZM6 11.7871H18C18.2652 11.7871 18.5196 11.8925 18.7071 12.08C18.8946 12.2675 19 12.5219 19 12.7871C19 13.0523 18.8946 13.3067 18.7071 13.4942C18.5196 13.6818 18.2652 13.7871 18 13.7871H6C5.73478 13.7871 5.48043 13.6818 5.29289 13.4942C5.10536 13.3067 5 13.0523 5 12.7871C5 12.5219 5.10536 12.2675 5.29289 12.08C5.48043 11.8925 5.73478 11.7871 6 11.7871Z" fill="black"/>
</svg>
