<svg width="24" height="25" viewBox="0 0 24 25" fill="none" xmlns="http://www.w3.org/2000/svg">
<path d="M20 8.78711L12 13.7871L4 8.78711V6.78711L12 11.7871L20 6.78711M20 4.78711H4C2.89 4.78711 2 5.67711 2 6.78711V18.7871C2 19.3175 2.21071 19.8263 2.58579 20.2013C2.96086 20.5764 3.46957 20.7871 4 20.7871H20C20.5304 20.7871 21.0391 20.5764 21.4142 20.2013C21.7893 19.8263 22 19.3175 22 18.7871V6.78711C22 6.25668 21.7893 5.74797 21.4142 5.3729C21.0391 4.99782 20.5304 4.78711 20 4.78711Z" fill="black"/>
</svg>
