<svg width="32" height="33" viewBox="0 0 32 33" fill="none" xmlns="http://www.w3.org/2000/svg">
<path d="M4 1.56543H20.552L28 9.01343V30.8988H4V1.56543ZM6.66667 4.2321V28.2321H25.3333V10.1174L19.448 4.2321H6.66667ZM16 12.2321C15.4696 12.2321 14.9609 12.4428 14.5858 12.8179C14.2107 13.193 14 13.7017 14 14.2321C14 14.7625 14.2107 15.2712 14.5858 15.6463C14.9609 16.0214 15.4696 16.2321 16 16.2321C16.5304 16.2321 17.0391 16.0214 17.4142 15.6463C17.7893 15.2712 18 14.7625 18 14.2321C18 13.7017 17.7893 13.193 17.4142 12.8179C17.0391 12.4428 16.5304 12.2321 16 12.2321ZM11.3333 14.2321C11.3333 13.6193 11.454 13.0124 11.6886 12.4462C11.9231 11.8801 12.2668 11.3656 12.7002 10.9323C13.1335 10.4989 13.648 10.1552 14.2141 9.92066C14.7803 9.68614 15.3872 9.56543 16 9.56543C16.6128 9.56543 17.2197 9.68614 17.7859 9.92066C18.352 10.1552 18.8665 10.4989 19.2998 10.9323C19.7332 11.3656 20.0769 11.8801 20.3114 12.4462C20.546 13.0124 20.6667 13.6193 20.6667 14.2321C20.6667 15.4698 20.175 16.6568 19.2998 17.5319C18.4247 18.4071 17.2377 18.8988 16 18.8988C14.7623 18.8988 13.5753 18.4071 12.7002 17.5319C11.825 16.6568 11.3333 15.4698 11.3333 14.2321ZM8 25.5654C8 24.1509 8.5619 22.7944 9.5621 21.7942C10.5623 20.794 11.9188 20.2321 13.3333 20.2321H18.6667C20.0812 20.2321 21.4377 20.794 22.4379 21.7942C23.4381 22.7944 24 24.1509 24 25.5654V26.8988H21.3333V25.5654C21.3333 24.8582 21.0524 24.1799 20.5523 23.6798C20.0522 23.1797 19.3739 22.8988 18.6667 22.8988H13.3333C12.6261 22.8988 11.9478 23.1797 11.4477 23.6798C10.9476 24.1799 10.6667 24.8582 10.6667 25.5654V26.8988H8V25.5654Z" fill="#FFC928"/>
</svg>
