<svg width="962" height="155" viewBox="0 0 962 155" fill="none" xmlns="http://www.w3.org/2000/svg">
<path d="M4.54545 47.1364V30.9091H81V47.1364H52.5V124H33.0455V47.1364H4.54545ZM104.911 83.6364V124H85.5473V30.9091H104.365V66.5H105.184C106.759 62.3788 109.305 59.1515 112.82 56.8182C116.335 54.4545 120.744 53.2727 126.047 53.2727C130.896 53.2727 135.123 54.3333 138.729 56.4545C142.365 58.5455 145.184 61.5606 147.184 65.5C149.214 69.4091 150.214 74.0909 150.184 79.5455V124H130.82V83C130.85 78.697 129.759 75.3485 127.547 72.9545C125.365 70.5606 122.305 69.3636 118.365 69.3636C115.729 69.3636 113.396 69.9242 111.365 71.0455C109.365 72.1667 107.79 73.803 106.638 75.9545C105.517 78.0758 104.941 80.6364 104.911 83.6364ZM189.56 125.364C182.379 125.364 176.197 123.909 171.015 121C165.863 118.061 161.894 113.909 159.106 108.545C156.318 103.152 154.924 96.7727 154.924 89.4091C154.924 82.2273 156.318 75.9242 159.106 70.5C161.894 65.0758 165.818 60.8485 170.879 57.8182C175.97 54.7879 181.939 53.2727 188.788 53.2727C193.394 53.2727 197.682 54.0152 201.651 55.5C205.651 56.9545 209.136 59.1515 212.106 62.0909C215.106 65.0303 217.439 68.7273 219.106 73.1818C220.773 77.6061 221.606 82.7879 221.606 88.7273V94.0455H162.651V82.0455H203.379C203.379 79.2576 202.773 76.7879 201.56 74.6364C200.348 72.4848 198.667 70.803 196.515 69.5909C194.394 68.3485 191.924 67.7273 189.106 67.7273C186.167 67.7273 183.56 68.4091 181.288 69.7727C179.045 71.1061 177.288 72.9091 176.015 75.1818C174.742 77.4242 174.091 79.9242 174.06 82.6818V94.0909C174.06 97.5455 174.697 100.53 175.97 103.045C177.273 105.561 179.106 107.5 181.47 108.864C183.833 110.227 186.636 110.909 189.879 110.909C192.03 110.909 194 110.606 195.788 110C197.576 109.394 199.106 108.485 200.379 107.273C201.651 106.061 202.621 104.576 203.288 102.818L221.197 104C220.288 108.303 218.424 112.061 215.606 115.273C212.818 118.455 209.212 120.939 204.788 122.727C200.394 124.485 195.318 125.364 189.56 125.364ZM326.735 30.9091V124H309.735L269.235 65.4091H268.553V124H248.871V30.9091H266.144L306.325 89.4545H307.144V30.9091H326.735ZM366.77 125.364C359.589 125.364 353.407 123.909 348.225 121C343.073 118.061 339.104 113.909 336.316 108.545C333.528 103.152 332.134 96.7727 332.134 89.4091C332.134 82.2273 333.528 75.9242 336.316 70.5C339.104 65.0758 343.028 60.8485 348.089 57.8182C353.18 54.7879 359.149 53.2727 365.998 53.2727C370.604 53.2727 374.892 54.0152 378.861 55.5C382.861 56.9545 386.346 59.1515 389.316 62.0909C392.316 65.0303 394.649 68.7273 396.316 73.1818C397.983 77.6061 398.816 82.7879 398.816 88.7273V94.0455H339.861V82.0455H380.589C380.589 79.2576 379.983 76.7879 378.77 74.6364C377.558 72.4848 375.877 70.803 373.725 69.5909C371.604 68.3485 369.134 67.7273 366.316 67.7273C363.377 67.7273 360.77 68.4091 358.498 69.7727C356.255 71.1061 354.498 72.9091 353.225 75.1818C351.952 77.4242 351.301 79.9242 351.27 82.6818V94.0909C351.27 97.5455 351.907 100.53 353.18 103.045C354.483 105.561 356.316 107.5 358.68 108.864C361.043 110.227 363.846 110.909 367.089 110.909C369.24 110.909 371.21 110.606 372.998 110C374.786 109.394 376.316 108.485 377.589 107.273C378.861 106.061 379.831 104.576 380.498 102.818L398.407 104C397.498 108.303 395.634 112.061 392.816 115.273C390.028 118.455 386.422 120.939 381.998 122.727C377.604 124.485 372.528 125.364 366.77 125.364ZM418.704 54.1818L431.522 78.5909L444.659 54.1818H464.522L444.295 89.0909L465.068 124H445.295L431.522 99.8636L417.977 124H397.977L418.704 89.0909L398.704 54.1818H418.704ZM505.479 54.1818V68.7273H463.433V54.1818H505.479ZM472.979 37.4545H492.342V102.545C492.342 104.333 492.615 105.727 493.16 106.727C493.706 107.697 494.463 108.379 495.433 108.773C496.433 109.167 497.585 109.364 498.888 109.364C499.797 109.364 500.706 109.288 501.615 109.136C502.524 108.955 503.221 108.818 503.706 108.727L506.751 123.136C505.782 123.439 504.418 123.788 502.66 124.182C500.903 124.606 498.767 124.864 496.251 124.955C491.585 125.136 487.494 124.515 483.979 123.091C480.494 121.667 477.782 119.455 475.842 116.455C473.903 113.455 472.948 109.667 472.979 105.091V37.4545ZM532.721 124V30.9091H552.403V69.3182H592.357V30.9091H611.994V124H592.357V85.5455H552.403V124H532.721ZM651.723 125.364C644.662 125.364 638.556 123.864 633.405 120.864C628.283 117.833 624.329 113.621 621.541 108.227C618.753 102.803 617.359 96.5152 617.359 89.3636C617.359 82.1515 618.753 75.8485 621.541 70.4545C624.329 65.0303 628.283 60.8182 633.405 57.8182C638.556 54.7879 644.662 53.2727 651.723 53.2727C658.783 53.2727 664.874 54.7879 669.995 57.8182C675.147 60.8182 679.117 65.0303 681.905 70.4545C684.692 75.8485 686.086 82.1515 686.086 89.3636C686.086 96.5152 684.692 102.803 681.905 108.227C679.117 113.621 675.147 117.833 669.995 120.864C664.874 123.864 658.783 125.364 651.723 125.364ZM651.814 110.364C655.026 110.364 657.708 109.455 659.859 107.636C662.011 105.788 663.632 103.273 664.723 100.091C665.844 96.9091 666.405 93.2879 666.405 89.2273C666.405 85.1667 665.844 81.5455 664.723 78.3636C663.632 75.1818 662.011 72.6667 659.859 70.8182C657.708 68.9697 655.026 68.0455 651.814 68.0455C648.571 68.0455 645.844 68.9697 643.632 70.8182C641.45 72.6667 639.798 75.1818 638.677 78.3636C637.586 81.5455 637.041 85.1667 637.041 89.2273C637.041 93.2879 637.586 96.9091 638.677 100.091C639.798 103.273 641.45 105.788 643.632 107.636C645.844 109.455 648.571 110.364 651.814 110.364ZM690.997 124V54.1818H709.77V66.3636H710.497C711.77 62.0303 713.906 58.7576 716.906 56.5455C719.906 54.303 723.361 53.1818 727.27 53.1818C728.24 53.1818 729.285 53.2424 730.406 53.3636C731.528 53.4848 732.512 53.6515 733.361 53.8636V71.0455C732.452 70.7727 731.194 70.5303 729.588 70.3182C727.982 70.1061 726.512 70 725.179 70C722.331 70 719.785 70.6212 717.543 71.8636C715.331 73.0758 713.573 74.7727 712.27 76.9545C710.997 79.1364 710.361 81.6515 710.361 84.5V124H690.997ZM735.692 124V54.1818H755.056V124H735.692ZM745.42 45.1818C742.541 45.1818 740.071 44.2273 738.01 42.3182C735.98 40.3788 734.965 38.0606 734.965 35.3636C734.965 32.697 735.98 30.4091 738.01 28.5C740.071 26.5606 742.541 25.5909 745.42 25.5909C748.298 25.5909 750.753 26.5606 752.783 28.5C754.844 30.4091 755.874 32.697 755.874 35.3636C755.874 38.0606 754.844 40.3788 752.783 42.3182C750.753 44.2273 748.298 45.1818 745.42 45.1818ZM762.524 124V112.455L796.705 70.1364V69.6364H763.705V54.1818H820.024V66.7727L787.933 108.045V108.545H821.205V124H762.524ZM857.878 125.364C850.817 125.364 844.711 123.864 839.56 120.864C834.438 117.833 830.484 113.621 827.696 108.227C824.908 102.803 823.514 96.5152 823.514 89.3636C823.514 82.1515 824.908 75.8485 827.696 70.4545C830.484 65.0303 834.438 60.8182 839.56 57.8182C844.711 54.7879 850.817 53.2727 857.878 53.2727C864.938 53.2727 871.029 54.7879 876.15 57.8182C881.302 60.8182 885.272 65.0303 888.06 70.4545C890.847 75.8485 892.241 82.1515 892.241 89.3636C892.241 96.5152 890.847 102.803 888.06 108.227C885.272 113.621 881.302 117.833 876.15 120.864C871.029 123.864 864.938 125.364 857.878 125.364ZM857.969 110.364C861.181 110.364 863.863 109.455 866.014 107.636C868.166 105.788 869.787 103.273 870.878 100.091C871.999 96.9091 872.56 93.2879 872.56 89.2273C872.56 85.1667 871.999 81.5455 870.878 78.3636C869.787 75.1818 868.166 72.6667 866.014 70.8182C863.863 68.9697 861.181 68.0455 857.969 68.0455C854.726 68.0455 851.999 68.9697 849.787 70.8182C847.605 72.6667 845.953 75.1818 844.832 78.3636C843.741 81.5455 843.196 85.1667 843.196 89.2273C843.196 93.2879 843.741 96.9091 844.832 100.091C845.953 103.273 847.605 105.788 849.787 107.636C851.999 109.455 854.726 110.364 857.969 110.364ZM916.516 83.6364V124H897.152V54.1818H915.607V66.5H916.425C917.97 62.4394 920.561 59.2273 924.198 56.8636C927.834 54.4697 932.243 53.2727 937.425 53.2727C942.273 53.2727 946.501 54.3333 950.107 56.4545C953.713 58.5758 956.516 61.6061 958.516 65.5455C960.516 69.4545 961.516 74.1212 961.516 79.5455V124H942.152V83C942.183 78.7273 941.092 75.3939 938.88 73C936.667 70.5758 933.622 69.3636 929.743 69.3636C927.137 69.3636 924.834 69.9242 922.834 71.0455C920.864 72.1667 919.319 73.803 918.198 75.9545C917.107 78.0758 916.546 80.6364 916.516 83.6364Z" fill="black"/>
<rect x="835" y="67" width="45" height="45" rx="3" fill="white"/>
<rect x="629" y="67" width="45" height="45" rx="3" fill="white"/>
</svg>
